<?xml version="1.0" encoding="UTF-8"?>
<svg id="Calque_2" data-name="Calque 2" xmlns="http://www.w3.org/2000/svg" xmlns:xlink="http://www.w3.org/1999/xlink" viewBox="0 0 290.11 67.7">
  <defs>
    <style>
      .cls-1 {
        fill: url(#Dégradé_sans_nom_10-3);
      }

      .cls-2 {
        fill: #fff;
      }

      .cls-3 {
        fill: url(#Dégradé_sans_nom_10-2);
      }

      .cls-4 {
        fill: #efeff2;
      }

      .cls-5 {
        fill: url(#Dégradé_sans_nom_10-5);
      }

      .cls-6 {
        fill: url(#Dégradé_sans_nom_10-4);
      }

      .cls-7 {
        fill: url(#Dégradé_sans_nom_10);
      }
    </style>
    <linearGradient id="Dégradé_sans_nom_10" data-name="Dégradé sans nom 10" x1="-17.92" y1="60.55" x2="63.97" y2="9.4" gradientUnits="userSpaceOnUse">
      <stop offset="0" stop-color="#a5c843"/>
      <stop offset="1" stop-color="#ebe443"/>
    </linearGradient>
    <linearGradient id="Dégradé_sans_nom_10-2" data-name="Dégradé sans nom 10" x1="-22.6" y1="53.07" x2="59.29" y2="1.92" xlink:href="#Dégradé_sans_nom_10"/>
    <linearGradient id="Dégradé_sans_nom_10-3" data-name="Dégradé sans nom 10" x1="-20.71" y1="56.09" x2="61.18" y2="4.93" xlink:href="#Dégradé_sans_nom_10"/>
    <linearGradient id="Dégradé_sans_nom_10-4" data-name="Dégradé sans nom 10" x1="-28.61" y1="43.44" x2="53.28" y2="-7.72" xlink:href="#Dégradé_sans_nom_10"/>
    <linearGradient id="Dégradé_sans_nom_10-5" data-name="Dégradé sans nom 10" x1="-9.03" y1="74.78" x2="72.85" y2="23.62" xlink:href="#Dégradé_sans_nom_10"/>
  </defs>
  <g id="Calque_1-2" data-name="Calque 1">
    <g>
      <g>
        <path class="cls-2" d="M85.64,46.01c.66,2.92,2.76,4.2,6.13,4.2s4.8-1.33,4.8-3.46c0-2.37-1.4-3.4-6.38-4.56-7.92-1.86-9.88-4.74-9.88-8.67,0-5.07,3.79-8.52,10.69-8.52,7.73,0,10.81,4.15,11.22,8.41h-6.34c-.3-1.79-1.29-3.74-5.05-3.74-2.56,0-4.1,1.05-4.1,3.12s1.24,2.84,5.94,3.94c8.46,1.99,10.32,5.14,10.32,9.25,0,5.31-4.02,8.96-11.71,8.96s-11.28-3.64-11.98-8.94h6.34Z"/>
        <path class="cls-2" d="M127.93,43.57c0,6.61-3.96,11.47-10.88,11.47s-10.73-4.83-10.73-11.36,4.08-11.51,11.02-11.51c6.43,0,10.59,4.54,10.59,11.39ZM112.46,43.62c0,4.21,1.81,6.7,4.72,6.7s4.61-2.49,4.61-6.66c0-4.57-1.68-6.73-4.69-6.73-2.81,0-4.64,2.08-4.64,6.7Z"/>
        <path class="cls-2" d="M151.33,48.19c0,2.11,0,4.4.04,6.35h-5.93c-.08-.59-.13-1.76-.16-2.52-1.3,2.19-3.23,3.03-6.02,3.03-4.45,0-7.29-2.71-7.29-8.12v-14.23h6.04v13.02c0,2.41.75,4.41,3.37,4.41,2.76,0,3.9-1.47,3.9-5.8v-11.63h6.05v15.5Z"/>
        <path class="cls-2" d="M170.95,52.22c-1.24,2-3.18,2.83-6.1,2.83-4.85,0-9.18-3.64-9.18-11.22,0-7.04,4.23-11.65,9.69-11.65,3.49,0,5.09,1.4,5.59,2.56.03-.56.12-1.51.2-2.05h5.71c0,1.82-.04,4-.04,5.98v24.24h-5.86v-10.69ZM161.88,43.63c0,3.9,1.41,6.57,4.61,6.57,3.71,0,4.54-2.69,4.54-6.64,0-4.23-.84-6.53-4.45-6.53-3.22,0-4.7,2.69-4.7,6.6Z"/>
        <path class="cls-4" d="M209.23,40.95c0-5.78.04-11.31.17-14.27h-.13c-1.18,3.97-7.18,18.53-10.93,27.86h-2.24c-2.83-7.22-9.03-23.43-10.39-27.9h-.08c.21,3.38.29,10.26.29,15.32v12.58h-2.28v-29.55h3.42c4.05,10.13,9.16,23.39,10.26,26.72h.09c.68-2.15,6.58-16.89,10.72-26.72h3.38v29.55h-2.28v-13.59Z"/>
        <path class="cls-4" d="M233,50.53c0,1.86.17,3.33.3,4.01h-2.03c-.17-.51-.3-1.44-.38-3.25-.72,1.56-2.57,3.76-6.92,3.76-4.9,0-7.01-3.17-7.01-6.33,0-4.64,3.59-6.75,9.92-6.75h4.01v-2.15c0-2.11-.63-4.94-5.45-4.94-4.26,0-4.9,2.24-5.36,3.97h-2.11c.25-2.32,1.69-5.91,7.51-5.91,4.81,0,7.51,2.03,7.51,6.67v10.93ZM230.93,43.78h-4.14c-4.69,0-7.6,1.22-7.6,4.85,0,2.66,1.9,4.47,4.85,4.47,6.04,0,6.88-4.01,6.88-8.57v-.76Z"/>
        <path class="cls-4" d="M242.07,44.32c1.94-2.07,7.85-8.06,10.68-10.89h2.7l-8.36,8.4,9.41,12.71h-2.62l-8.32-11.36-3.5,3.38v7.98h-2.11v-31.11h2.11v20.9Z"/>
        <path class="cls-4" d="M259.93,44.24c.04,5.45,2.79,8.82,6.84,8.82s5.32-2.24,6.08-3.97h2.15c-.89,2.79-3.12,5.95-8.32,5.95-6.42,0-8.91-5.53-8.91-10.89,0-6.04,3-11.23,9.16-11.23,6.5,0,8.57,5.61,8.57,9.58,0,.59,0,1.18-.04,1.73h-15.53ZM273.31,42.38c-.04-4.18-2.32-7.47-6.46-7.47-4.35,0-6.33,3.04-6.8,7.47h13.26Z"/>
        <path class="cls-4" d="M280.65,39.17c0-3.55-.04-5.07-.04-5.74h2.07c.04.68.08,2.03.08,4.73,1.22-3.17,3.93-5.07,7.35-5.23v2.28c-4.39.3-7.35,3.33-7.35,8.36v10.98h-2.11v-15.37Z"/>
      </g>
      <g>
        <path class="cls-7" d="M17.23,62.47c-1.72-.33-3.21-1.38-4.09-2.89-.88-1.5-1.06-3.31-.51-4.96l4.34-15.59c-3.61-.32-6.83-2.67-8.16-6.27l-2.97-8.07c-.27-.74.11-1.55.84-1.83.04-.01.08-.03.12-.04.71-.2,1.45.18,1.71.88l2.97,8.07c1,2.71,3.52,4.41,6.27,4.45l6.09-21.86L2.41,19.8c-1.55.39-2.57,1.87-2.39,3.45l5.17,40.75c.22,2,2.16,3.35,4.12,2.85l13.27-3.36-5.34-1.02Z"/>
        <path class="cls-3" d="M46.41,14.48l-5.18-.96.96-5.18c.35-1.9,2.18-3.16,4.09-2.81l5.18.96-.96,5.18c-.35,1.9-2.18,3.16-4.09,2.81Z"/>
        <path class="cls-1" d="M59.1,10.75l-5.18-.96.96-5.18c.35-1.9,2.18-3.16,4.09-2.81l5.18.96-.96,5.18c-.35,1.9-2.18,3.16-4.09,2.81Z"/>
        <path class="cls-6" d="M36.26,6.06l-3.61-.67.67-3.61c.22-1.18,1.35-1.95,2.53-1.74l3.61.67-.67,3.61c-.22,1.18-1.35,1.95-2.53,1.74Z"/>
        <path class="cls-5" d="M61.95,20.09l-30.5-5.84c-.21-.04-.41-.06-.6-.06-1.35,0-2.58.86-3.02,2.17l-12.59,39.11c-.64,1.91.55,3.94,2.52,4.32l41,7.86c.21.04.42.06.63.06,1.75,0,3.26-1.4,3.31-3.22l1.85-41.15c.05-1.57-1.05-2.94-2.59-3.24ZM57.37,27.75l-2.35,8.38c-1.35,4.81-6.2,7.8-11.09,6.86l-.12-.02-5.09-1.04c-4.91-1-8.2-5.52-7.64-10.49l.94-8.55c.09-.78.78-1.34,1.57-1.26.04,0,.08,0,.12.01.72.14,1.22.81,1.14,1.56l-.94,8.55c-.39,3.5,1.93,6.68,5.39,7.39l5.09,1.04s.06.01.09.01c3.46.66,6.85-1.46,7.8-4.84l2.35-8.38c.2-.72.92-1.16,1.64-1.02.04,0,.07.02.11.03.76.21,1.2,1,.99,1.75Z"/>
      </g>
    </g>
  </g>
</svg>